<svg xmlns="http://www.w3.org/2000/svg" xmlns:xlink="http://www.w3.org/1999/xlink" width="794" zoomAndPan="magnify" viewBox="0 0 595.5 842.249979" height="1123" preserveAspectRatio="xMidYMid meet" version="1.2"><defs><clipPath id="73d2acd40d"><path d="M 0.015625 0 L 594.984375 0 L 594.984375 841.5 L 0.015625 841.5 Z M 0.015625 0 "/></clipPath><clipPath id="b418640e9d"><path d="M 18.152344 118.527344 L 576.617188 118.527344 L 576.617188 696 L 18.152344 696 Z M 18.152344 118.527344 "/></clipPath></defs><g id="b24c57d09f"><g clip-rule="nonzero" clip-path="url(#73d2acd40d)"><path style=" stroke:none;fill-rule:nonzero;fill:#ffffff;fill-opacity:1;" d="M 0.015625 0 L 594.984375 0 L 594.984375 841.5 L 0.015625 841.5 Z M 0.015625 0 "/><path style=" stroke:none;fill-rule:nonzero;fill:#f8f7f2;fill-opacity:1;" d="M 0.015625 0 L 595.210938 0 L 595.210938 841.816406 L 0.015625 841.816406 Z M 0.015625 0 "/></g><g clip-rule="nonzero" clip-path="url(#b418640e9d)"><path style=" stroke:none;fill-rule:nonzero;fill:#000000;fill-opacity:1;" d="M 258.671875 328.144531 C 300.523438 328.144531 334.574219 294.09375 334.574219 252.246094 C 334.574219 210.394531 300.53125 176.355469 258.671875 176.355469 C 216.8125 176.355469 182.777344 210.394531 182.777344 252.246094 C 182.777344 294.09375 216.820312 328.144531 258.671875 328.144531 Z M 258.246094 210.277344 C 268.800781 210.277344 277.359375 218.835938 277.359375 229.390625 C 277.359375 239.949219 268.800781 248.503906 258.246094 248.503906 C 247.6875 248.503906 239.128906 239.949219 239.128906 229.390625 C 239.128906 218.835938 247.6875 210.277344 258.246094 210.277344 Z M 228.214844 278.496094 C 228.214844 261.9375 241.644531 248.503906 258.207031 248.503906 C 274.765625 248.503906 288.199219 261.9375 288.199219 278.496094 L 288.199219 286.730469 L 228.214844 286.730469 Z M 549.421875 399.734375 L 537.28125 399.734375 L 537.28125 173.925781 C 537.28125 173.769531 537.203125 173.625 537.195312 173.46875 C 537.15625 172.828125 537.03125 172.207031 536.824219 171.59375 C 536.746094 171.363281 536.679688 171.128906 536.582031 170.90625 C 536.234375 170.128906 535.777344 169.398438 535.15625 168.769531 L 486.59375 120.207031 C 485.972656 119.585938 485.234375 119.140625 484.464844 118.78125 C 484.242188 118.671875 484.007812 118.613281 483.765625 118.539062 C 483.15625 118.332031 482.542969 118.207031 481.902344 118.167969 C 481.738281 118.160156 481.589844 118.082031 481.433594 118.082031 L 166.851562 118.082031 C 148.855469 118.082031 134.21875 132.71875 134.21875 150.714844 L 134.21875 234.625 L 44.378906 234.625 C 29.652344 234.625 17.667969 246.601562 17.667969 261.335938 L 17.667969 649.820312 C 17.667969 675.257812 38.367188 695.953125 63.800781 695.953125 L 529.996094 695.953125 C 555.433594 695.953125 576.132812 675.257812 576.132812 649.820312 L 576.132812 426.441406 C 576.132812 411.707031 564.15625 399.734375 549.421875 399.734375 Z M 134.21875 448.292969 L 122.078125 448.292969 C 109.1875 448.292969 98.40625 457.460938 95.910156 469.621094 C 95.550781 471.359375 95.367188 473.15625 95.367188 475.003906 L 95.367188 664.390625 C 95.367188 665.554688 95.25 666.691406 95.027344 667.789062 C 95.007812 667.875 94.96875 667.953125 94.949219 668.039062 C 93.316406 675.414062 86.898438 680.957031 79.128906 681.308594 C 69.132812 680.570312 61.375 672.351562 61.375 662.253906 L 61.375 300.183594 C 61.375 293.492188 66.824219 288.042969 73.515625 288.042969 L 134.21875 288.042969 Z M 522.714844 399.734375 L 364.886719 399.734375 C 362.671875 399.734375 360.585938 400.742188 359.203125 402.460938 L 322.539062 448.292969 L 148.785156 448.292969 L 148.785156 150.714844 C 148.785156 140.757812 156.886719 132.648438 166.851562 132.648438 L 474.152344 132.648438 L 474.152344 173.925781 C 474.152344 177.945312 477.414062 181.210938 481.433594 181.210938 L 522.714844 181.210938 Z M 357.601562 232.199219 L 357.601562 203.0625 C 357.601562 199.042969 360.867188 195.777344 364.886719 195.777344 L 471.722656 195.777344 C 475.742188 195.777344 479.007812 199.042969 479.007812 203.0625 L 479.007812 232.199219 C 479.007812 236.21875 475.742188 239.484375 471.722656 239.484375 L 364.886719 239.484375 C 360.867188 239.484375 357.601562 236.21875 357.601562 232.199219 Z M 357.601562 271.046875 C 357.601562 267.027344 360.867188 263.761719 364.886719 263.761719 L 471.722656 263.761719 C 475.742188 263.761719 479.007812 267.027344 479.007812 271.046875 C 479.007812 275.066406 475.742188 278.332031 471.722656 278.332031 L 364.886719 278.332031 C 360.867188 278.332031 357.601562 275.066406 357.601562 271.046875 Z M 357.601562 309.894531 C 357.601562 305.875 360.867188 302.613281 364.886719 302.613281 L 413.449219 302.613281 C 417.46875 302.613281 420.734375 305.875 420.734375 309.894531 C 420.734375 313.917969 417.46875 317.179688 413.449219 317.179688 L 364.886719 317.179688 C 360.867188 317.179688 357.601562 313.917969 357.601562 309.894531 Z M 481.433594 351.171875 C 485.457031 351.171875 488.71875 354.4375 488.71875 358.457031 C 488.71875 362.476562 485.457031 365.742188 481.433594 365.742188 L 199.777344 365.742188 C 195.753906 365.742188 192.492188 362.476562 192.492188 358.457031 C 192.492188 354.4375 195.753906 351.171875 199.777344 351.171875 Z M 323.609375 407.015625 C 323.609375 411.039062 320.34375 414.300781 316.324219 414.300781 L 199.777344 414.300781 C 195.753906 414.300781 192.492188 411.039062 192.492188 407.015625 C 192.492188 402.996094 195.753906 399.734375 199.777344 399.734375 L 316.324219 399.734375 C 320.34375 399.734375 323.609375 402.996094 323.609375 407.015625 Z M 323.609375 407.015625 "/></g></g></svg>